<svg width="60" height="58" viewBox="0 0 60 58" fill="none" xmlns="http://www.w3.org/2000/svg">
<g clip-path="url(#clip0_1034_23330)">
<path d="M30.6235 35.9885C30.1474 35.7188 29.5098 35.6416 28.7298 35.7584L21.9628 36.7665C22.065 36.5733 22.1692 36.3959 22.2747 36.2351C22.6914 35.5421 23.515 34.5168 24.7229 33.1888C25.948 31.8411 26.8295 30.8422 27.3438 30.2204C27.8726 29.5802 28.3632 28.725 28.8017 27.6793C29.2494 26.6111 29.3859 25.4638 29.2078 24.2691C29.0944 23.5056 28.8379 22.7796 28.4469 22.111C28.0566 21.4438 27.5575 20.8695 26.9641 20.404C26.3713 19.9391 25.7027 19.5969 24.9754 19.3866C23.8756 19.0819 22.582 19.0364 21.1307 19.2534C19.9241 19.4334 18.881 19.7743 18.0298 20.2681C17.1772 20.7626 16.4882 21.3567 15.9825 22.0345C15.4761 22.7124 15.1227 23.4462 14.9315 24.2157C14.7396 24.9851 14.6935 25.7164 14.7937 26.3889C14.8834 26.9883 15.1359 27.4452 15.5447 27.7478C15.9535 28.0512 16.4328 28.1646 16.9669 28.0848C17.5762 27.9944 18.0199 27.7221 18.2856 27.2771C18.525 26.8768 18.7122 26.3283 18.8434 25.6465C19.001 24.821 19.0834 24.5724 19.1197 24.4959C19.6221 23.4014 20.416 22.7875 21.5475 22.6194C22.0763 22.5403 22.5892 22.5877 23.0712 22.7592C23.5486 22.9293 23.9534 23.2115 24.2745 23.5992C24.5943 23.9856 24.7974 24.457 24.8785 25.0003C24.9543 25.5067 24.9075 26.0533 24.7401 26.623C24.5693 27.2039 24.2759 27.7986 23.869 28.3907C23.4563 28.9914 22.9097 29.6184 22.2497 30.2501C21.8527 30.6134 21.2343 31.3169 20.36 32.4009C19.5021 33.4645 18.5395 34.7443 17.497 36.2074C17.2313 36.5891 17.0078 37.0949 16.8317 37.7107C16.6511 38.3437 16.5904 38.8342 16.6465 39.2094C16.7342 39.7995 17.0348 40.2861 17.5399 40.6554C17.925 40.9376 18.3924 41.0793 18.9331 41.0793C19.0986 41.0793 19.272 41.0662 19.4514 41.0391L29.7017 39.5114C30.3861 39.4092 30.8839 39.1441 31.1806 38.7241C31.4747 38.3074 31.5848 37.8314 31.507 37.3085C31.4187 36.7157 31.1213 36.2713 30.6235 35.9891V35.9885Z" fill="#353635"/>
<path d="M48.3894 30.4222C48.2747 29.6534 47.9285 29.182 47.3601 29.0204C46.8643 28.88 46.2333 28.8648 45.4849 28.9769L45.1487 29.027L43.582 18.5116C43.4528 17.6419 43.1528 17.0024 42.6912 16.6094C42.2191 16.2079 41.5829 16.0635 40.8022 16.1802C40.2984 16.2553 39.8857 16.492 39.5771 16.8843C39.2975 17.2384 38.9685 17.7712 38.5716 18.5143L32.6631 29.4859C32.4989 29.786 32.3605 30.0398 32.249 30.2462C32.1356 30.4552 32.0262 30.6754 31.9233 30.9003C31.8145 31.1376 31.7387 31.3644 31.6971 31.5735C31.653 31.793 31.6464 32.0093 31.6774 32.2157C31.7908 32.9766 32.1343 33.5528 32.6974 33.928C33.2519 34.2979 34.0128 34.4146 34.9583 34.2735L41.6857 33.2713L42.0325 35.5988C42.1459 36.3584 42.4176 36.9215 42.8422 37.2736C43.1897 37.5617 43.5946 37.7061 44.0482 37.7061C44.1596 37.7061 44.2743 37.6976 44.3911 37.6798C44.995 37.5894 45.4566 37.3112 45.7625 36.8529C46.0625 36.4026 46.1561 35.7801 46.0401 35.0008L45.6933 32.6733L46.2801 32.5862C47.0483 32.4715 47.5962 32.2506 47.9562 31.9111C48.338 31.5504 48.4837 31.0499 48.3907 30.4229L48.3894 30.4222ZM41.1411 29.6244L35.9381 30.3998L40.0934 22.5944L41.1411 29.6244Z" fill="#353635"/>
<path d="M58.1815 24.9252C57.7641 22.651 57.0751 20.4376 56.1335 18.3468C51.9466 8.8936 41.9904 2.4906 31.7526 2.4906C30.7312 2.4906 29.7046 2.55456 28.6806 2.68775C24.2841 3.16908 20.0622 4.78647 16.5142 7.29994C16.3837 7.39027 16.3784 7.39818 16.2485 7.48851C15.5436 8.25204 15.1843 9.20943 15.4263 10.2921C15.6603 11.3563 15.4981 12.3295 14.9397 13.1781C14.5085 13.846 14.0245 14.5106 13.4291 15.0216C12.144 16.128 9.07471 18.6178 7.13818 20.1712C6.14849 20.9664 5.45946 21.5196 5.45946 21.5196L4.69065 21.5862L4.85813 20.884L5.75749 19.9635L12.0082 13.577C12.1493 13.4359 12.351 13.3165 12.4018 13.1379C12.4255 13.0713 12.4361 12.9809 12.4361 12.8827C12.444 12.6117 12.2152 12.3717 11.9363 12.3717H11.9205C11.8249 12.3717 11.7319 12.3875 11.6627 12.4007C11.6337 12.406 11.6093 12.4139 11.5882 12.4376C11.5776 12.4429 11.5723 12.4429 11.5644 12.4455C11.4794 12.5121 11.4049 12.6236 11.3251 12.7086C8.958 14.9959 4.25746 19.5264 4.06624 19.7097L4.06097 19.7149L3.15633 20.0716L3.34491 19.6009L3.52293 19.1644C3.52293 19.1644 8.207 14.1533 10.5213 11.626C10.5398 11.6075 10.5583 11.5831 10.5747 11.5515C10.7238 11.2323 10.4284 10.8677 10.1092 10.8677C10.0453 10.8677 9.98396 10.8835 9.9233 10.9132C9.89428 10.9264 9.86725 10.9448 9.85143 10.9666C7.36698 13.3337 2.44357 18.1061 2.44357 18.1061L1.54421 18.4866L1.8818 17.5714C1.8818 17.5714 6.45707 12.6453 8.74964 10.1873C8.86107 10.0699 9.03185 9.97692 9.05558 9.83911C9.06877 9.76988 9.07668 9.67691 9.07668 9.57867C9.08196 9.31031 8.84789 9.07624 8.57689 9.07624H8.55316C8.45491 9.08151 8.36985 9.08942 8.3059 9.11316C8.12787 9.16921 8.01051 9.37097 7.8694 9.52262L0.702213 16.7986L0 16.9819L0.0507703 16.2131C0.0507703 16.2131 4.7645 10.0949 6.40036 8.12149C6.89751 7.51489 7.55489 7.02301 8.21952 6.5786C8.82877 6.16387 9.51252 5.9509 10.2517 5.9509C10.5226 5.9509 10.8049 5.97991 11.0923 6.03859C11.3027 6.08145 11.5071 6.10255 11.7069 6.10255C12.1031 6.10255 12.4809 6.02013 12.8317 5.86848C13.4436 5.41088 14.0713 4.97769 14.7043 4.56229C19.4233 1.58926 24.6816 0.192749 29.8688 0.192749C41.1734 0.192749 52.1484 6.81861 56.5133 18.1872C57.3435 20.3631 57.8993 22.6319 58.1808 24.9252H58.1815Z" fill="#353535"/>
<path d="M59.9948 41.8079C60.0508 43.1537 59.6328 44.388 59.0051 45.5478C57.5103 48.3118 55.3846 50.4343 52.4485 51.6205C51.8129 51.8756 51.0704 51.9745 50.3708 51.9745C50.2805 51.9745 50.1902 51.9719 50.0999 51.9693C50.0412 51.9666 49.9858 51.9666 49.9271 51.9666C49.6132 51.9666 49.3179 51.9983 49.0389 52.0596C48.3657 52.5436 47.6774 52.9985 46.9745 53.435L46.9666 53.4403C46.8097 53.5385 46.509 53.7225 46.509 53.7225L45.7936 54.1451C41.3858 56.6322 36.5686 57.8078 31.8126 57.8078C20.5106 57.8078 9.54094 51.182 5.17864 39.816C4.34852 37.6375 3.7874 35.3687 3.50586 33.0754C3.92323 35.3496 4.61489 37.563 5.55645 39.6565C9.74072 49.1123 19.697 55.5126 29.9322 55.5126C30.9561 55.5126 31.9827 55.4487 33.0074 55.3155C37.4046 54.8315 41.5988 53.0836 44.1927 51.3521C44.3127 51.2802 44.4347 51.2163 44.5547 51.1444C44.6081 51.1128 44.6582 51.0804 44.7142 51.0488C44.7274 51.0382 44.738 51.0356 44.7512 51.0251C45.0518 50.8391 45.3499 50.6446 45.6367 50.4481C46.211 49.7914 46.4747 49.0305 46.4345 48.1101C46.3653 46.5968 47.0062 45.3223 47.8765 44.1519C49.5684 41.8805 51.6671 40.1193 54.3857 39.2417C55.194 38.9786 56.0855 38.8507 56.942 38.8507H57.0725C58.7934 38.8692 59.9269 40.0824 59.9961 41.8086L59.9948 41.8079Z" fill="#353535"/>
<path d="M25.7567 54.0706C27.1348 54.3159 28.5326 54.4478 29.9344 54.4478C30.9188 54.4478 31.9072 54.3852 32.8725 54.2612C32.8791 54.2605 32.885 54.2599 32.8916 54.2592C37.333 53.77 41.3373 51.9792 43.6035 50.4666C43.6213 50.4547 43.6391 50.4435 43.6569 50.433C43.7116 50.4007 43.7677 50.3697 43.8231 50.338C43.8831 50.3044 43.9431 50.2708 44.0017 50.2352C44.007 50.2319 44.0123 50.2286 44.0182 50.2253C44.04 50.2128 44.0604 50.2002 44.0809 50.1877C44.1066 50.1719 44.1329 50.1561 44.1593 50.1402C44.1659 50.1363 44.1725 50.1323 44.1791 50.1277C44.1824 50.1257 44.1857 50.1237 44.189 50.1211C44.4534 49.9563 44.6927 49.802 44.9169 49.6516C45.2578 49.2191 45.3989 48.7523 45.3725 48.1575C45.2796 46.1155 46.2699 44.5304 47.0242 43.5137C49.0174 40.8413 51.3186 39.1125 54.0582 38.2263C54.2916 38.1512 54.5323 38.0859 54.7776 38.0298C56.277 34.0764 56.8176 29.7002 56.151 25.2291C55.1435 18.4701 51.5645 12.5069 46.0728 8.43931C43.2283 6.33267 40.0463 4.86627 36.7007 4.08097C35.0747 3.73877 33.4171 3.55481 31.7536 3.55481C30.7698 3.55481 29.7814 3.61745 28.8161 3.74141C28.8095 3.74207 28.8036 3.74273 28.797 3.74338C24.6009 4.20427 20.5656 5.73398 17.1284 8.16766C17.1225 8.17161 17.1172 8.17557 17.1113 8.17953C17.0592 8.21513 17.0315 8.23491 17.0044 8.25469C16.9893 8.2659 16.9741 8.27711 16.957 8.28898C16.4822 8.84152 16.3207 9.42109 16.4651 10.062C16.7598 11.4005 16.5396 12.6803 15.8314 13.7577C15.4213 14.3913 14.8563 15.199 14.1231 15.828C12.9046 16.8777 9.99219 19.2448 7.80379 20.9987C6.91366 21.7161 6.26749 22.2343 6.14617 22.3319C5.24879 25.6366 5.00285 29.1727 5.53891 32.7708C7.1662 43.6937 15.5143 51.9798 25.7567 54.07V54.0706ZM27.9056 9.27274C28.9025 9.12438 29.8981 9.05119 30.8878 9.05119C35.1295 9.05119 39.2451 10.4016 42.7173 12.9724C46.9985 16.1432 49.7889 20.7917 50.5742 26.0612C52.1949 36.9393 44.6637 47.1078 33.7857 48.7292C32.7927 48.8769 31.8083 48.9488 30.8331 48.9488C21.1247 48.9481 12.5907 41.8264 11.1177 31.9407C9.49702 21.0627 17.0282 10.8941 27.9062 9.27274H27.9056Z" fill="#353535"/>
</g>
<defs>
<clipPath id="clip0_1034_23330">
<rect width="60" height="57.6144" fill="white" transform="translate(0 0.192749)"/>
</clipPath>
</defs>
</svg>
